# xmcd
#
# Track frame offsets:
#	150
#	22172
#	32017
#	58672
#	71707
#	86705
#	98707
#	122555
#	134522
#	145645
#	163295
#	175725
#	190232
#	201025
#	209562
#	222785
#	239250
#	257555
#	266037
#	283252
#
# Disc length: 4440 seconds
#
# Revision: 1
# Processed by: cddbd v1.5.2PL0 Copyright (c) Steve Scherf et al.
# Submitted via: audiograbber 1.83.01
#
DISCID=37115614
DTITLE=Louis Prima - Prima&Smith Live from Las Vegas
DYEAR=1900
DGENRE=
TTITLE0=Òhem there eyes/Honeysuckle rose - L.Prima
TTITLE1=I`ve got you under my skin - K.Smith
TTITLE2=Should i/I can`t believe that you`re in love with me - L.Prima
TTITLE3=Don`t take your love from me - K.Smith
TTITLE4=Greenback dollar bill - Sam Butera
TTITLE5=Autumn leaves - K.Smith
TTITLE6=Òhe white cliffs of dover - L.Prima
TTITLE7=Nothing can replace a man - K.Smith
TTITLE8=Robin Hood - L.Prima
TTITLE9=Judi - L.Prima
TTITLE10=Somebody loves me/Nothing`s too good for my baby - L.Prima&K.Smith
TTITLE11=Pack your clothets - Sam Butera
TTITLE12=Come rain or come shine - K.Smith
TTITLE13=Òoo marvelous for words - L.Prima
TTITLE14=Embraceable you/I got it bad(and that ain`t good) - L.Prima&K.Smith
TTITLE15=Buona sera - L.Prima
TTITLE16=Òenderly/Can`t help lovin`that man - K.Smith
TTITLE17=When the saints go marching in - L.Prima with Sam Butera
TTITLE18=Closing
TTITLE19=Äèñê ñ äàííûìè [CD-ROM)
EXTD=
EXTT0=
EXTT1=
EXTT2=
EXTT3=
EXTT4=
EXTT5=
EXTT6=
EXTT7=
EXTT8=
EXTT9=
EXTT10=
EXTT11=
EXTT12=
EXTT13=
EXTT14=
EXTT15=
EXTT16=
EXTT17=
EXTT18=
EXTT19=
PLAYORDER=
